Coordinates
version=1
nRows=21
nColumns=12
inDegrees=yes

Units are S.I. units (second, meters, Newtons, ...)
Angles are in degrees

endheader
time	SC_y	SC_z	SC_x	AC_y	AC_z	AC_x	GH_y	GH_z	GH_yy	EL_x	PS_y
       0.0              -42.93          38.15           36.7          33.53          7.044         -15.62          175.8          40.19         -159.1           42.7          151.3
  0.005139              -42.93          38.14           36.7          33.53           7.04         -15.61          175.8           40.2         -159.1           42.7          151.3
   0.01028              -42.92          38.14          36.69          33.53          7.037         -15.61          175.7           40.2         -159.1          42.69          151.2
   0.01542              -42.92          38.14          36.69          33.54          7.033         -15.61          175.7           40.2         -159.0          42.69          151.2
   0.02055              -42.92          38.13          36.68          33.54          7.029         -15.61          175.7          40.21         -159.0          42.68          151.2
   0.02569              -42.92          38.13          36.67          33.54          7.024          -15.6          175.6          40.21         -159.0          42.68          151.2
   0.03083              -42.91          38.13          36.67          33.55           7.02          -15.6          175.6          40.22         -158.9          42.68          151.2
   0.03597              -42.91          38.12          36.66          33.55          7.015          -15.6          175.5          40.22         -158.9          42.67          151.2
   0.04111              -42.91          38.12          36.65          33.55           7.01         -15.59          175.5          40.23         -158.8          42.67          151.2
   0.04625              -42.91          38.11          36.65          33.56          7.004         -15.59          175.5          40.23         -158.8          42.66          151.2
   0.05139               -42.9          38.11          36.64          33.56          6.998         -15.58          175.4          40.24         -158.7          42.65          151.2
   0.05653               -42.9           38.1          36.63          33.56          6.991         -15.58          175.3          40.24         -158.7          42.65          151.2
   0.06166              -42.89           38.1          36.62          33.57          6.984         -15.57          175.3          40.25         -158.6          42.64          151.1
    0.0668              -42.89          38.09          36.61          33.57          6.977         -15.57          175.2          40.26         -158.5          42.63          151.1
   0.07194              -42.89          38.09           36.6          33.58          6.968         -15.56          175.1          40.27         -158.5          42.63          151.1
   0.07708              -42.88          38.08          36.59          33.59          6.959         -15.56          175.1          40.28         -158.4          42.62          151.1
   0.08222              -42.88          38.07          36.58          33.59           6.95         -15.55          175.0          40.28         -158.3          42.61          151.1
   0.08736              -42.87          38.06          36.56           33.6          6.939         -15.54          174.9           40.3         -158.2           42.6          151.1
    0.0925              -42.86          38.05          36.55          33.61          6.927         -15.54          174.8          40.31         -158.1          42.59          151.0
   0.09764              -42.86          38.04          36.53          33.62          6.915         -15.53          174.7          40.32         -158.0          42.57          151.0
    0.1028              -42.85          38.03          36.51          33.63          6.901         -15.52          174.6          40.33         -157.8          42.56          151.0
